<?xml version="1.0" encoding="UTF-8"?>
<svg id="Layer_2" data-name="Layer 2" xmlns="http://www.w3.org/2000/svg" viewBox="0 0 314.1 133.22">
  <defs>
    <style>
      .cls-1 {
        fill: #001689;
      }

      .cls-2 {
        fill: #42d3fd;
      }
    </style>
  </defs>
  <g id="Layer_1-2" data-name="Layer 1">
    <g>
      <g>
        <path class="cls-1" d="M20.07,66.61c0-9.46-4.19-17.95-10.8-23.74-1.85-1.62-3.88-3.02-6.06-4.18-1.25,2.69-2.32,5.48-3.2,8.36,2.32,1.37,4.38,3.13,6.07,5.2,3.21,3.91,5.13,8.91,5.13,14.36s-1.93,10.44-5.13,14.36c-1.7,2.07-3.75,3.84-6.07,5.2,.88,2.87,1.95,5.66,3.2,8.36,2.19-1.16,4.22-2.56,6.06-4.18,6.61-5.79,10.8-14.28,10.8-23.74Z"/>
        <path class="cls-1" d="M25.31,34.25c15.75,0,28.84-11.6,31.18-26.7,.25-1.58,.38-3.21,.38-4.86,0-.83-.04-1.65-.11-2.46-2.99,.32-5.92,.83-8.78,1.53,.01,.31,.02,.62,.02,.93,0,2.39-.37,4.69-1.06,6.85-2.91,9.17-11.51,15.84-21.64,15.84-1.37,0-2.7-.13-4-.36-2.64-.47-5.13-1.4-7.37-2.71-1.97,2.22-3.8,4.57-5.47,7.04,2.05,1.3,4.27,2.37,6.61,3.18,3.21,1.11,6.65,1.71,10.24,1.71Z"/>
        <path class="cls-1" d="M98.67,34.25c4.41,0,8.61-.91,12.42-2.55,2.25-.97,4.37-2.19,6.31-3.63-1.72-2.42-3.59-4.71-5.61-6.88-2.06,1.47-4.37,2.6-6.86,3.31-1.99,.57-4.09,.89-6.27,.89-10.42,0-19.22-7.06-21.87-16.65-.53-1.93-.82-3.95-.82-6.04,0-.52,.02-1.03,.06-1.54-2.87-.57-5.81-.96-8.8-1.15-.08,.89-.12,1.78-.12,2.69,0,1.56,.12,3.08,.34,4.58,2.23,15.24,15.38,26.98,31.22,26.98Z"/>
        <path class="cls-1" d="M25.31,98.97c-3.58,0-7.03,.61-10.24,1.71-2.34,.8-4.55,1.88-6.61,3.18,1.67,2.47,3.5,4.82,5.47,7.04,2.24-1.31,4.73-2.24,7.37-2.71,1.3-.23,2.64-.36,4-.36,10.13,0,18.72,6.67,21.64,15.84,.69,2.16,1.06,4.47,1.06,6.85,0,.31-.01,.62-.02,.93,2.86,.7,5.79,1.22,8.78,1.53,.06-.81,.11-1.63,.11-2.46,0-1.65-.13-3.28-.38-4.86-2.34-15.1-15.43-26.7-31.18-26.7Z"/>
        <path class="cls-1" d="M98.67,98.97c-15.85,0-29,11.74-31.22,26.98-.22,1.5-.34,3.02-.34,4.58,0,.91,.05,1.8,.12,2.69,2.99-.19,5.93-.58,8.8-1.15-.03-.51-.06-1.02-.06-1.54,0-2.09,.29-4.12,.82-6.04,2.65-9.59,11.45-16.65,21.87-16.65,2.17,0,4.28,.31,6.27,.89,2.49,.72,4.8,1.85,6.86,3.31,2.01-2.17,3.89-4.46,5.61-6.88-1.95-1.44-4.06-2.66-6.31-3.63-3.81-1.64-8.01-2.55-12.42-2.55Z"/>
      </g>
      <g>
        <path class="cls-2" d="M122.15,52.7c5.19,0,9.56,2.72,11.89,6.8l5.64-3.4c-3.46-5.9-9.93-9.68-17.53-9.68-11.66,0-20.47,8.69-20.47,20.18s8.8,20.18,20.47,20.18c7.6,0,14.07-3.78,17.53-9.68l-5.64-3.4c-2.33,4.08-6.7,6.8-11.89,6.8-7.9,0-13.77-5.97-13.77-13.91s5.87-13.91,13.77-13.91Z"/>
        <path class="cls-2" d="M165.12,46.45c-11.66,0-20.47,8.69-20.47,20.18s8.8,20.18,20.47,20.18,20.39-8.69,20.39-20.18-8.8-20.18-20.39-20.18Zm0,34.09c-7.9,0-13.77-5.97-13.77-13.91s5.87-13.91,13.77-13.91,13.69,5.97,13.69,13.91-5.87,13.91-13.69,13.91Z"/>
        <path class="cls-2" d="M200.48,54v-6.65h-6.47v38.55h6.47v-19.28c0-8.01,4.97-13.15,13.09-13.15h1.28v-6.73h-1.28c-5.72,0-10.23,2.65-13.09,7.26Z"/>
        <path class="cls-2" d="M237.8,46.45c-11.51,0-20.16,8.62-20.16,20.03s8.95,20.33,20.99,20.33c7.45,0,13.77-3.25,17.61-8.39l-4.44-3.86c-2.48,3.55-7.3,6.27-12.94,6.27-7.45,0-12.94-4.61-14.22-11.34h33.03c.08-.91,.15-1.97,.15-2.87,0-11.57-8.58-20.18-20.01-20.18Zm-13.24,17.16c1.2-6.58,6.47-11.19,13.17-11.19s12.04,4.54,13.24,11.19h-26.41Z"/>
        <polygon class="cls-2" points="279.86 78.12 266.92 47.35 259.47 47.35 276.33 85.9 283.17 85.9 300.03 47.35 292.81 47.35 279.86 78.12"/>
        <rect class="cls-2" x="306.58" y="47.35" width="6.47" height="38.55"/>
        <path class="cls-2" d="M309.81,39.64c2.41,0,4.29-1.89,4.29-4.31s-1.88-4.31-4.29-4.31-4.36,1.81-4.36,4.31,1.88,4.31,4.36,4.31Z"/>
      </g>
    </g>
  </g>
</svg>